<svg width="198" height="49" viewBox="0 0 198 49" fill="none" xmlns="http://www.w3.org/2000/svg">
<path d="M4.02916 0C3.01695 0 2.19289 0.353814 1.55132 1.06144C0.911639 1.76907 0.591797 2.66987 0.591797 3.76181V10.712H4.07243V4.91883C4.07243 3.95296 4.47505 3.47104 5.27654 3.47104H11.3038V0H4.02916Z" fill="#30343B"/>
<path d="M4.02916 48.0206C3.01695 48.0206 2.19289 47.6669 1.55132 46.9594C0.911639 46.2519 0.591797 45.3512 0.591797 44.2575V37.3086H4.07243V43.1007C4.07243 44.0664 4.47505 44.5482 5.27654 44.5482H11.3038V48.0206H4.02916Z" fill="#30343B"/>
<path d="M18.9432 37.0638V27.5762L11.3047 10.9283H15.9806L20.0497 19.9862C20.3591 20.7023 20.6208 21.4064 20.835 22.0985C21.0492 22.7907 21.1919 23.3277 21.2633 23.7096C21.3585 23.3277 21.5013 22.7907 21.6917 22.0985C21.9058 21.4064 22.1676 20.7023 22.4769 19.9862L26.439 10.9283H31.0792L23.4407 27.5762V37.0638H18.9432Z" fill="#30343B"/>
<path d="M34.6347 37.0638V10.9283H42.6301C45.1525 10.9283 47.1514 11.537 48.6267 12.7542C50.1021 13.9476 50.8398 15.5826 50.8398 17.6591C50.8398 18.8286 50.578 19.843 50.0545 20.7023C49.531 21.5615 48.8171 22.2298 47.9129 22.7072C47.0324 23.1845 46.0092 23.4232 44.8432 23.4232V23.28C46.1044 23.2561 47.2228 23.4948 48.1984 23.996C49.1978 24.4734 49.9831 25.1894 50.5542 26.1442C51.1491 27.0989 51.4466 28.2565 51.4466 29.617C51.4466 31.1206 51.1015 32.4334 50.4114 33.5552C49.7214 34.677 48.7457 35.5481 47.4845 36.1687C46.2471 36.7654 44.7599 37.0638 43.0228 37.0638H34.6347ZM38.9893 33.3404H42.7372C44.046 33.3404 45.0692 32.9943 45.8069 32.3021C46.5684 31.5861 46.9491 30.6194 46.9491 29.4021C46.9491 28.1849 46.5684 27.2063 45.8069 26.4664C45.0692 25.7026 44.046 25.3207 42.7372 25.3207H38.9893V33.3404ZM38.9893 21.7047H42.5587C43.7485 21.7047 44.6766 21.3944 45.3429 20.7739C46.033 20.1294 46.378 19.2583 46.378 18.1603C46.378 17.0624 46.033 16.2032 45.3429 15.5826C44.6766 14.962 43.7485 14.6517 42.5587 14.6517H38.9893V21.7047Z" fill="#30343B"/>
<path d="M63.9969 37.4218C62.3312 37.4218 60.8797 37.1115 59.6423 36.4909C58.4287 35.8465 57.4887 34.9514 56.8224 33.8058C56.1799 32.6363 55.8587 31.2638 55.8587 29.6886V18.3035C55.8587 16.7282 56.1799 15.3678 56.8224 14.2221C57.4887 13.0526 58.4287 12.1575 59.6423 11.537C60.8797 10.8925 62.3312 10.5703 63.9969 10.5703C65.6865 10.5703 67.138 10.8925 68.3516 11.537C69.5652 12.1575 70.4933 13.0526 71.1357 14.2221C71.802 15.3678 72.1352 16.7163 72.1352 18.2677V29.6886C72.1352 31.2638 71.802 32.6363 71.1357 33.8058C70.4933 34.9514 69.5652 35.8465 68.3516 36.4909C67.138 37.1115 65.6865 37.4218 63.9969 37.4218ZM63.9969 33.4836C65.2105 33.4836 66.1267 33.1613 66.7454 32.5169C67.3641 31.8486 67.6734 30.9058 67.6734 29.6886V18.3035C67.6734 17.0624 67.3641 16.1196 66.7454 15.4752C66.1267 14.8307 65.2105 14.5085 63.9969 14.5085C62.7833 14.5085 61.8672 14.8307 61.2485 15.4752C60.6298 16.1196 60.3204 17.0624 60.3204 18.3035V29.6886C60.3204 30.9058 60.6298 31.8486 61.2485 32.5169C61.891 33.1613 62.8071 33.4836 63.9969 33.4836Z" fill="#30343B"/>
<path d="M77.404 37.0638V10.9283H85.6493C87.3864 10.9283 88.8855 11.2505 90.1467 11.895C91.4317 12.5394 92.4312 13.4464 93.145 14.6159C93.8589 15.7616 94.2159 17.1221 94.2159 18.6974C94.2159 20.4158 93.7756 21.9315 92.8952 23.2442C92.0385 24.5569 90.8725 25.4878 89.3972 26.0368L94.5728 37.0638H89.5756L85.0425 26.6812H81.8657V37.0638H77.404ZM81.8657 22.743H85.6493C86.9105 22.743 87.898 22.3969 88.6119 21.7047C89.3258 21.0125 89.6827 20.0578 89.6827 18.8406C89.6827 17.5994 89.3258 16.6328 88.6119 15.9406C87.898 15.2246 86.9105 14.8665 85.6493 14.8665H81.8657V22.743Z" fill="#30343B"/>
<path d="M96.8584 40.7783V37.4219H113.998V40.7783H96.8584Z" fill="#30343B"/>
<path d="M123.091 36.9192V14.9368H116.282V10.7838H134.391V14.9368H127.582V36.9192H123.091Z" fill="#30343B"/>
<path d="M139.153 36.9192V10.7838H154.767V14.6862H143.538V21.4886H153.519V25.3552H143.538V33.0168H154.767V36.9192H139.153Z" fill="#30343B"/>
<path d="M168.227 37.2772C166.564 37.2772 165.102 36.967 163.843 36.3464C162.607 35.702 161.644 34.8069 160.955 33.6612C160.29 32.4917 159.957 31.1193 159.957 29.544V18.159C159.957 16.5598 160.29 15.1874 160.955 14.0418C161.644 12.8961 162.607 12.013 163.843 11.3924C165.102 10.748 166.564 10.4258 168.227 10.4258C169.915 10.4258 171.364 10.748 172.576 11.3924C173.812 12.013 174.774 12.8961 175.464 14.0418C176.153 15.1874 176.497 16.5598 176.497 18.159H172.006C172.006 16.9179 171.673 15.9751 171.008 15.3306C170.366 14.6862 169.439 14.364 168.227 14.364C167.015 14.364 166.077 14.6862 165.411 15.3306C164.746 15.9751 164.413 16.9059 164.413 18.1232V29.544C164.413 30.7613 164.746 31.7041 165.411 32.3724C166.077 33.0168 167.015 33.339 168.227 33.339C169.439 33.339 170.366 33.0168 171.008 32.3724C171.673 31.7041 172.006 30.7613 172.006 29.544H176.497C176.497 31.0954 176.153 32.4559 175.464 33.6254C174.774 34.795 173.812 35.702 172.576 36.3464C171.364 36.967 169.915 37.2772 168.227 37.2772Z" fill="#30343B"/>
<path d="M181.51 36.9192V10.7838H185.965V21.2738H192.952V10.7838H197.408V36.9192H192.952V25.4268H185.965V36.9192H181.51Z" fill="#30343B"/>
</svg>